<?xml version="1.0" encoding="utf-8"?>
<!-- Generator: Adobe Illustrator 16.0.0, SVG Export Plug-In . SVG Version: 6.00 Build 0)  -->
<!DOCTYPE svg PUBLIC "-//W3C//DTD SVG 1.1//EN" "http://www.w3.org/Graphics/SVG/1.1/DTD/svg11.dtd">
<svg version="1.1" id="Layer_1" xmlns="http://www.w3.org/2000/svg" xmlns:xlink="http://www.w3.org/1999/xlink" x="0px" y="0px"
	 width="1319.76px" height="1319.76px" viewBox="0 0 1319.76 1319.76" enable-background="new 0 0 1319.76 1319.76"
	 xml:space="preserve">
<path fill="#144749" d="M897.025,884.418c10.902,2.32,7.314,19.269-3.606,16.944C882.516,899.042,886.104,882.094,897.025,884.418z
	 M373.519,910.373c-10.903,2.321-7.314,19.27,3.606,16.945C388.028,924.997,384.44,908.049,373.519,910.373z M866.408,910.373
	c-10.921-2.324-14.51,14.624-3.606,16.945C873.723,929.643,877.312,912.694,866.408,910.373z M983.834,858.557
	c10.921,2.324,14.51-14.624,3.606-16.944C976.52,839.288,972.931,856.236,983.834,858.557z M1171.911,751.045
	c10.921,2.324,14.51-14.624,3.606-16.944C1164.597,731.775,1161.008,748.724,1171.911,751.045z M1195.117,768.703
	c10.921,2.324,14.51-14.624,3.606-16.945C1187.803,749.434,1184.214,766.382,1195.117,768.703z M44.81,768.703
	c10.903-2.321,7.314-19.27-3.606-16.945C30.301,754.079,33.889,771.027,44.81,768.703z M68.017,751.045
	c10.903-2.321,7.314-19.27-3.607-16.944C53.507,736.421,57.095,753.369,68.017,751.045z M256.093,858.557
	c10.903-2.32,7.314-19.269-3.607-16.944C241.583,843.933,245.172,860.881,256.093,858.557z M346.509,901.362
	c10.903-2.32,7.314-19.269-3.606-16.944C331.999,886.738,335.588,903.687,346.509,901.362z M1189.072,749.89
	c-3.494,7.12-11.772,16.525-18.534,23.545c-10.087,10.514-39.939,20.941-39.939,20.941l-0.017-0.005
	c-24.199,53.61-60.794,101.676-105.918,139.436c0.281-0.234,0.563-0.464,0.845-0.698c1.267-0.184,4.012-0.699,5.256-0.899
	c15.962-2.576,30.074-6.539,42.482-11.231l-0.016-0.026c0,0,11.28-18.548,23.84-33.432c-1.293,0.415-2.775,0.51-4.43,0.158
	c-10.903-2.32-7.315-19.269,3.606-16.944c5.661,1.205,7.407,6.352,6.257,10.698c1.253-1.318,2.505-2.578,3.746-3.742
	c0.904-0.847,1.679-1.514,2.339-2.024c-2.749-5.653,1.308-14.366,9.34-12.656c10.902,2.32,7.314,19.27-3.606,16.944
	c-1.367-0.291-2.506-0.813-3.431-1.496c-2.871,7.863-12.996,25.133-18.27,34.034c25.335-12.68,41.304-27.25,49.964-34.007
	c6.563-5.123,13.957-12.47,21.415-21.665c-23.668-32.444,0.064-57.494,0.064-57.494c12.785,16.063,14.368,30.037,12.308,40.491
	c4.831-7.384,9.506-15.486,13.798-24.216c0.443-0.903,0.875-1.781,1.296-2.637c-1.366,0.509-2.958,0.654-4.753,0.272
	c-10.903-2.321-7.314-19.27,3.606-16.945c3.725,0.793,5.755,3.293,6.384,6.147c8.616-17.03,10.376-18.354,11.036-10.866
	c0.556,6.321-3.536,20.15-13.016,38.309c1.261-0.379,2.697-0.46,4.295-0.12c10.903,2.321,7.314,19.27-3.606,16.944
	c-3.853-0.82-5.888-3.467-6.438-6.443c-2.933,5.018-6.219,10.275-9.887,15.73c-3.058,4.547-6.289,8.686-9.552,12.477
	c28.09-6.118,42.497,14.947,42.497,14.947c-26.804,14.895-45.567,4.729-54.322-2.587c-14.203,13.539-25.554,20.856-20.94,25.987
	c0.764,0.85,1.283,1.612,1.614,2.31c1.298-0.42,2.788-0.519,4.452-0.164c10.903,2.321,7.314,19.27-3.606,16.945
	c-5.657-1.204-7.405-6.346-6.26-10.69c-6.475,1.979-17.201,3.198-26.292,6.688c-15.152,5.801-108.385,38.713-125.75,44.839
	c-1.799,0.634-3.695,0.981-3.695,0.981c0.171-0.104,0.339-0.211,0.509-0.314c-12.279,7.446-24.987,14.19-38.075,20.152
	c-6.548,2.982-13.184,5.801-19.896,8.466c18.684,5.131,33.953,8.242,46.755,9.933c-0.767-5.371,3.201-11.604,10.105-10.135
	c6.063,1.29,7.641,7.103,5.971,11.61c5.494,0.262,10.458,0.224,15.004-0.042c1.613-40.716,36.17-45.372,36.17-45.372
	c-0.177,26.131-12.35,38.233-22.539,43.791c4.707-0.822,8.998-1.853,13.098-2.947c7.943-2.125,15.47-3.457,20.571-3.719
	c0.01-0.042,0.021-0.082,0.031-0.123c0-0.006-0.001-0.026-0.001-0.026c0.003,0,0.005,0.001,0.008,0.001
	c7.317-29.01,32.585-26.642,32.585-26.642c-5.005,20.968-18.161,26.254-26.228,27.475c24.748,4.895,26.262,27.148,26.262,27.148
	c-21.693-1.585-28.964-13.93-31.4-21.684c-1.03,0.589-2.211,1.22-3.582,1.902c-3.149,1.566-6.539,2.995-10.095,4.298
	c8.301,3.901,4.494,18.416-5.667,16.254c-6.607-1.406-7.886-8.18-5.442-12.786c-15.589,4.085-33.492,5.755-51.182,4.157
	c6.401,3.412,25.185,13.057,35.796,14.019c13.14,1.184,0.141,4.628-6.736,3.989c-1.908-0.177-4.716-0.698-8.043-1.501
	c1.787,5.609-2.256,13.166-9.784,11.563c-8.05-1.713-8.193-11.395-3.325-15.411c-11.446-3.916-23.786-9.602-29.023-15.871
	c-24.107-4.768-48.541-11.863-49.723-12.233l1.162-0.496c-33.569,11.642-68.811,19.683-104.668,24.92
	c-0.763,3.423-1.446,6.818-2.032,10.185c-6.146,35.344-18.907,42.32-36.88,43.026c-21.66,0.852-26.929,2.697-46.905,19.601
	c-19.978,16.903-39.954,23.427-82.179,23.427c-56.083,0-73.757,1.536-90.66-18.44s-35.343-12.293-59.93-21.513
	c-15.792-5.923-24.611-22.625-35.447-56.616c-35.079-5.243-69.545-13.192-102.41-24.589l1.162,0.496
	c-1.181,0.37-25.615,7.466-49.722,12.233c-5.237,6.27-17.578,11.955-29.024,15.871c4.869,4.017,4.726,13.698-3.325,15.411
	c-7.529,1.603-11.57-5.954-9.784-11.563c-3.327,0.803-6.134,1.324-8.042,1.501c-6.876,0.639-19.876-2.806-6.736-3.989
	c10.611-0.962,29.394-10.606,35.795-14.019c-17.689,1.598-35.592-0.072-51.181-4.157c2.442,4.606,1.164,11.38-5.443,12.786
	c-10.161,2.162-13.968-12.353-5.667-16.254c-3.556-1.303-6.945-2.731-10.094-4.298c-1.371-0.683-2.551-1.313-3.582-1.902
	c-2.436,7.754-9.707,20.099-31.4,21.684c0,0,1.515-22.254,26.262-27.148c-8.066-1.221-21.223-6.507-26.228-27.475
	c0,0,25.268-2.368,32.585,26.642c0.003,0,0.005-0.001,0.008-0.001c0,0-0.001,0.021-0.001,0.026c0.01,0.041,0.021,0.081,0.032,0.123
	c5.101,0.262,12.627,1.594,20.57,3.719c4.1,1.095,8.391,2.125,13.097,2.947c-10.189-5.558-22.361-17.66-22.538-43.791
	c0,0,34.556,4.656,36.169,45.372c4.545,0.266,9.51,0.304,15.003,0.042c-1.669-4.508-0.092-10.32,5.971-11.61
	c6.905-1.47,10.872,4.764,10.105,10.135c12.801-1.69,28.071-4.802,46.755-9.933c-6.713-2.665-13.349-5.483-19.896-8.466
	c-13.088-5.962-25.797-12.706-38.076-20.152c0.17,0.104,0.339,0.21,0.509,0.314c0,0-1.896-0.348-3.695-0.981
	c-17.365-6.126-110.598-39.038-125.75-44.839c-9.09-3.49-19.818-4.709-26.292-6.688c1.146,4.345-0.602,9.486-6.259,10.69
	c-10.921,2.324-14.51-14.624-3.606-16.945c1.664-0.354,3.154-0.256,4.453,0.164c0.33-0.697,0.85-1.46,1.614-2.31
	c4.613-5.131-6.737-12.448-20.94-25.987c-8.755,7.315-27.519,17.481-54.323,2.587c0,0,14.408-21.065,42.498-14.947
	c-3.263-3.791-6.495-7.93-9.552-12.477c-3.668-5.455-6.955-10.714-9.888-15.731c-0.55,2.977-2.585,5.624-6.438,6.444
	c-10.921,2.325-14.509-14.623-3.606-16.944c1.598-0.34,3.034-0.259,4.295,0.121c-9.48-18.159-13.572-31.988-13.016-38.31
	c0.66-7.488,2.419-6.164,11.036,10.867c0.628-2.855,2.659-5.355,6.384-6.148c10.921-2.324,14.509,14.624,3.606,16.945
	c-1.795,0.382-3.387,0.235-4.754-0.272c0.421,0.854,0.853,1.733,1.296,2.637c4.292,8.729,8.966,16.832,13.797,24.215
	c-2.06-10.454-0.476-24.428,12.308-40.49c0,0,23.733,25.05,0.064,57.493c7.458,9.195,14.852,16.543,21.416,21.666
	c8.66,6.757,24.629,21.327,49.964,34.007c-5.272-8.901-15.398-26.17-18.269-34.034c-0.925,0.685-2.064,1.205-3.431,1.496
	c-10.921,2.325-14.51-14.624-3.606-16.944c8.033-1.71,12.089,7.003,9.339,12.657c0.66,0.51,1.434,1.177,2.338,2.023
	c1.241,1.164,2.493,2.425,3.747,3.743c-1.151-4.347,0.595-9.494,6.257-10.699c10.921-2.324,14.509,14.624,3.606,16.944
	c-1.654,0.353-3.137,0.257-4.43-0.158c12.56,14.884,23.84,33.432,23.84,33.432l-0.016,0.026
	c12.408,4.692,26.521,8.655,42.482,11.231c1.245,0.2,3.989,0.716,5.256,0.899c0.282,0.234,0.563,0.464,0.845,0.698
	c-45.124-37.76-81.718-85.825-105.918-139.436l-0.017,0.005c0,0-29.853-10.428-39.939-20.941
	c-6.761-7.02-15.04-16.425-18.535-23.545C40.823,752.481,17.676,754.415,0,725.017c0,0,24.716-10.483,45.725,10.046
	c-3.091-7.385-4.132-18.401,4.916-32.333c0,0,18.554,16.155,3.895,40.792c7.577,7.796,22.856,31.19,46.107,29.924
	c-6.251-16.396-11.363-33.229-15.215-50.376c-2.711-12.069-4.8-24.573-5.117-36.95c-1,0.868-2.284,1.534-3.891,1.876
	c-10.921,2.325-14.51-14.623-3.606-16.944c3.397-0.723,6.084,0.42,7.847,2.407c0.41-4.838,1.16-9.626,2.322-14.328
	c-7.443-0.125-35.238-3.188-42.208-41.463c0,0,24.991-1,37.879,22.875c-1.404-6.983-0.485-16.083,6.574-26.952
	c0,0,19.633,17.082,2.577,42.906c0,0-0.455-0.368-1.161-1.072l3.254,26.519c1.902-11.487,9.398-27.37,34.804-35.838
	c0,0,6.438,35.07-33.199,48.915l2.495,20.324c0.453,3.691,1.09,7.742,3.917,10.159c1.006,0.86,2.367,1.272,3.713,1.284
	c-4.404-4.225-4.02-13.358,3.775-15.019c10.921-2.324,14.509,14.624,3.606,16.945c-0.904,0.192-1.753,0.242-2.553,0.189
	c0.065,0.234,0.108,0.48,0.116,0.739c0.566,19.366,6.23,38.199,14.42,56.04c-1.224-11.495,1.823-28.042,22.473-43.109
	c0,0,16.524,30.972-16.003,56.102c2.804,5.234,5.778,10.368,8.858,15.388c50.513,82.332,132.618,144.137,224.819,172.424
	c-6.475-8.085-49.599-62.158-63.257-85.042c-9.711,4.525-31.431,10.114-54.074-14.446c0,0,22.05-15.234,46.749,0.56
	c-11.828-22.571-32.008-56.904-55.302-64.904c-3.457-1.188-6.141-2.345-8.162-3.441c-1.554,7.169-7.718,22.541-32.102,24.323
	c0,0,0.874-12.772,12.049-21.098c-10.609,0.368-24.076-3.396-37.885-18.374c0,0,27.629-19.089,55.674,7.624
	c3.29-0.979,9.129-0.7,15.451,1.524c-8.885-6.915-22.251-22.939-12.713-52.98c0,0,32.479,15.597,19.816,56.265
	c11.549,6.421,21.713,13.694,32.14,26.175c-2.532-4.606-1.291-11.49,5.375-12.909c10.921-2.324,14.51,14.624,3.606,16.944
	c-2.887,0.615-5.255-0.125-6.985-1.578c4.954,6.229,9.99,13.678,15.284,22.826c11.231,19.367,33.227,49.289,61.592,79.789
	c0.023-1.029,0.482-36.305-5.726-58.602c-1.676-6.014-2.163-10.169-1.881-12.497c-8.236-5.279-26.562-21.333-15.816-55.179
	c0,0,21.401,10.278,22.688,35.898c4.713-5.628,12.543-10.744,25.573-11.595c0,0-0.623,22.625-27.155,27.308
	c-0.311,1.298-0.672,2.627-1.08,3.981c2.352,3.69,5.211,11.273,7.341,22.808c5.534,29.957,15.724,68.09,15.724,68.09
	c10.67,10.442,21.989,20.709,33.761,30.354c-1.659-0.25,9.921,1.543,22.024,2.967c-3.985-13.774-8.403-29.53-13.565-47.507
	c-24.711-86.055,0.125-175.182,10.882-202.841c10.756-27.66-16.904-58.395,7.683-133.691
	c24.587-75.297,58.394-101.42,43.027-107.567c-15.367-6.146-16.903-15.367-19.977-26.123c-3.073-10.757-12.293-12.293-41.615-12.293
	c-29.321,0-44.438-15.367-79.782-63.352c-35.343-47.986-44.563-76.485,16.903-65.729c61.467,10.756,96.811,35.343,116.787,55.32
	c19.977,19.977,47.637,6.146,53.784,0c0,0-75.297-35.344-109.104-49.174c-33.807-13.83-102.957-38.417-121.397-82.98
	c-18.44-44.563-16.907-79.907-9.224-116.787c7.684-36.88,41.494-95.273,52.25-121.397c10.757-26.124,18.44-43.027,12.293-4.61
	c-6.146,38.417-38.417,104.494-40.203,138.301c-0.773,14.639-14.726,86.941,12.543,9.22c25.832-73.626,72.15-112.96,109.104-149.054
	c21.513-21.012,42.966-30.48-9.22,30.73c-44.014,51.625-58.394,84.517-67.614,113.713c-9.22,29.197-26.123,46.101,15.367,27.66
	c54.798-24.354,83.984-35.9,150.594-57.623c64.844-21.147,69.15-5.38-36.884,36.887c-99.41,39.627-144.443,65.3-141.37,86.035
	c2.478,16.721,66.077,51.488,101.42,60.708c35.343,9.22,4.61-52.247,4.61-69.15c0-16.903,21.514,10.757,29.197,30.733
	c7.684,19.977,2.571,43.107,23.05,51.859c26.753,11.433,61.467,32.658,73.76,32.658s61.467,3.074,70.959,3.074
	s2.801-19.977-14.103-55.32c-16.904-35.344-15.525-26.619-15.445-41.49c0.078-14.43,30.812,26.124,49.252,50.71
	c18.44,24.587,30.733,19.977,53.783,10.369c23.051-9.608,15.367-42.639,15.367-79.519c0-36.88-6.146-53.783-18.44-75.297
	c-16.876-29.534-19.977-39.953,0-23.05s9.221-1.537,4.61-39.954c-4.61-38.417-43.027-110.641-6.146-56.857
	c36.88,53.784,50.71,216.671,52.247,238.184c1.536,21.514,3.073,24.587,27.659,12.293c24.587-12.293,15.367-75.297,19.978-116.787
	c4.609-41.49-10.757-104.494-16.903-133.69c-6.147-29.197,4.609-18.44,24.586,38.417c19.978,56.856,15.367,161.351,15.367,179.791
	s24.587,12.293,46.101-23.05c21.513-35.343,18.439-112.177,13.83-126.007c-4.61-13.83-6.535-30.733-6.535-30.733
	s15.755,7.683,21.901,41.49c6.146,33.807,21.514,81.443-9.22,145.984c-30.733,64.54-170.571,87.59-182.864,89.127
	c-12.294,1.537-24.587,3.073-24.587,16.903s7.684,12.293,23.05,30.733c15.367,18.44,6.147,30.733,7.684,39.954
	c1.537,9.22,4.61,13.83,41.49,43.027s23.05,58.394,16.903,67.613c-31.214,46.822-55.32,26.124-66.077,32.271
	c-10.757,6.146-24.587,9.22-24.587,9.22v16.904c0,0,41.49,23.05,78.371,73.76c36.88,50.711,53.783,175.181,47.637,218.208
	c-4.086,28.604-12.925,55.169-20.198,80.149c13.181-1.457,27.093-3.611,25.284-3.339c11.772-9.646,23.091-19.912,33.762-30.354
	c0,0,10.19-38.133,15.725-68.09c2.13-11.534,4.989-19.117,7.341-22.808c-0.408-1.354-0.77-2.684-1.08-3.981
	c-26.533-4.683-27.155-27.308-27.155-27.308c13.029,0.851,20.858,5.967,25.572,11.595c1.287-25.62,22.688-35.898,22.688-35.898
	c10.746,33.846-7.579,49.899-15.815,55.179c0.281,2.328-0.205,6.483-1.881,12.497c-6.208,22.297-5.748,57.572-5.726,58.602
	c28.365-30.5,50.36-60.422,61.593-79.789c5.294-9.148,10.329-16.597,15.283-22.826c-1.73,1.453-4.098,2.193-6.985,1.578
	c-10.903-2.32-7.314-19.269,3.606-16.944c6.666,1.419,7.908,8.302,5.376,12.908c10.426-12.479,20.591-19.753,32.14-26.174
	c-12.664-40.668,19.815-56.265,19.815-56.265c9.537,30.04-3.828,46.065-12.713,52.98c6.322-2.225,12.161-2.504,15.45-1.524
	c28.046-26.712,55.675-7.624,55.675-7.624c-13.81,14.979-27.275,18.743-37.885,18.374c11.176,8.325,12.05,21.098,12.05,21.098
	c-24.384-1.782-30.548-17.154-32.103-24.323c-2.021,1.097-4.704,2.255-8.161,3.441c-23.295,7.999-43.474,42.333-55.303,64.903
	c24.698-15.793,46.748-0.559,46.748-0.559c-22.644,24.561-44.362,18.972-54.074,14.446c-13.658,22.884-56.781,76.957-63.256,85.042
	c92.201-28.287,174.306-90.092,224.818-172.424c3.079-5.02,6.054-10.153,8.857-15.388c-32.527-25.13-16.003-56.102-16.003-56.102
	c20.651,15.067,23.698,31.614,22.474,43.109c8.189-17.841,13.854-36.674,14.42-56.04c0.008-0.259,0.051-0.505,0.116-0.739
	c-0.8,0.053-1.648,0.003-2.553-0.189c-10.903-2.321-7.314-19.27,3.606-16.945c7.796,1.66,8.18,10.794,3.775,15.019
	c1.346-0.012,2.707-0.424,3.713-1.284c2.826-2.417,3.464-6.468,3.917-10.159l2.494-20.324
	c-39.637-13.845-33.198-48.915-33.198-48.915c25.405,8.467,32.901,24.351,34.804,35.837l3.254-26.517
	c-0.705,0.704-1.16,1.071-1.16,1.071c-17.056-25.824,2.577-42.906,2.577-42.906c7.059,10.87,7.978,19.969,6.573,26.952
	c12.888-23.873,37.879-22.874,37.879-22.874c-6.969,38.277-34.766,41.339-42.208,41.463c1.163,4.702,1.912,9.49,2.322,14.328
	c1.763-1.986,4.45-3.13,7.848-2.407c10.902,2.321,7.314,19.27-3.606,16.944c-1.607-0.342-2.892-1.008-3.892-1.877
	c-0.317,12.377-2.406,24.882-5.117,36.951c-3.852,17.147-8.964,33.979-15.215,50.376c23.252,1.267,38.53-22.128,46.106-29.924
	c-14.659-24.637,3.895-40.792,3.895-40.792c9.048,13.931,8.007,24.947,4.916,32.332c21.01-20.527,45.726-10.045,45.726-10.045
	C1222.252,754.415,1199.104,752.481,1189.072,749.89z M1155.252,653.227c0.001,0.003,0.004,0.006,0.005,0.009
	c0.218,0.66,0.425,1.323,0.624,1.987c0.361-1.578,0.77-3.083,1.211-4.531C1156.466,651.653,1155.842,652.498,1155.252,653.227z
	 M84.675,653.226c-0.589-0.728-1.213-1.573-1.839-2.534c0.441,1.448,0.849,2.952,1.211,4.529c0.2-0.664,0.406-1.326,0.624-1.986
	C84.671,653.232,84.674,653.23,84.675,653.226z M822.762,1234.612c3.491,6.446,7.521,14.772,11.818,24.711
	c1.343,2.417,4.297,10.208,9.401,23.37c3.491,9.399,6.715,16.652,9.669,22.025c1.881,2.953,0.806,5.639-1.88,7.25
	c-2.687,1.612-5.909,0.538-7.252-1.879c-3.491-5.909-6.984-13.699-10.744-23.368c-6.983-18.802-11.55-29.816-16.654-39.754
	c-2.417-4.835-6.446-13.968-6.446,1.611c0,2.149-0.269,4.297-0.269,6.177c-0.269,2.418-0.269,6.717-0.538,13.164
	c-0.268,6.444-0.536,11.279-0.806,14.503c-0.268,6.446-0.268,17.729,0.538,26.055c0.268,2.956-1.881,5.642-4.835,5.909
	c-2.954,0.271-5.641-1.88-5.91-4.835c-0.806-8.595-0.806-20.95-0.537-27.665l0.807-14.505c0.269-6.715,0.536-11.015,0.536-13.162
	c1.612-37.872,1.345-70.912-1.073-98.579c-0.27-0.536-0.538-1.074-0.806-1.88c-0.806-2.955,0.806-5.641,3.76-6.446
	c21.489-5.371,38.68,0.27,48.35,13.967c9.67,12.626,8.864,32.234-3.224,47.543c-6.178,7.791-13.431,13.968-21.757,18.535
	C821.955,1228.971,821.149,1231.389,822.762,1234.612z M845.861,1183.308c0.269-6.447-1.074-11.818-4.566-15.848
	c-5.372-7.521-14.773-12.088-26.592-11.55c-3.491,0-5.104,2.418-5.104,5.642c1.074,15.041,1.612,32.499,1.612,52.914
	c0,3.761,0.536,5.908,1.073,5.908l-0.268-0.268c2.686,0,4.297-0.268,6.715-1.611
	C834.312,1210.706,845.055,1195.663,845.861,1183.308z M469.547,1309.016c-3.224-0.806-9.669-1.076-19.07-0.538
	c-4.029,0.269-7.253,0-9.939-0.268c-2.686-0.271-4.028-1.076-4.297-1.882c0-0.536-0.269-0.804-0.269-1.342
	c-0.537-2.417-0.806-5.908-1.074-9.938c-0.269-1.882-0.269-8.327-0.269-19.341c0-8.595,0-21.488-0.269-38.411
	c-0.537-33.844-0.537-59.898,0.538-83.804c0-2.956-2.15-5.642-5.104-5.642c-2.955,0-5.641,2.15-5.641,5.104
	c-1.074,24.443-1.074,49.961-0.537,84.074c0.269,17.19,0.269,30.084,0.269,38.679c0,11.282,0,17.997,0.268,19.876
	c0.269,9.671,1.612,18.267,7.252,21.221c4.298,1.882,10.744,2.688,19.608,2.417c8.327-0.535,13.431-0.535,15.848,0
	c2.955,0.806,5.64-0.806,6.446-3.759C474.113,1312.507,472.501,1309.821,469.547,1309.016z M381.174,1146.508
	c-1.88-0.268-3.76,0.271-5.103,1.344c-1.612,1.612-1.612,3.492-2.148,5.909c-3.762,14.773-6.716,29.816-9.67,48.081l-4.298,23.638
	l-4.297,27.129c-2.417,16.385-3.223,22.294-4.566,29.814c-1.075,5.373-5.372,6.446-6.716,1.882
	c-1.612-4.567-2.686-8.329-3.223-11.282l-9.938-44.052c-0.537-2.418-0.537-4.029-0.269-6.715
	c3.762-24.711,8.059-46.737,11.819-67.151c0.269-2.955-1.342-5.908-4.297-6.446s-5.641,1.344-6.447,4.297l-4.566,25.249
	c-2.954,15.847-4.298,13.7-6.447,0c-1.343-8.326-2.148-16.652-2.954-24.176c-0.269-2.953-2.955-5.103-5.909-4.832
	c-2.956,0.268-5.104,2.953-4.835,5.908c1.879,18.803,5.641,41.364,11.281,67.42c0.538,2.685,0.538,4.297,0.269,6.984l-7.252,45.126
	c0,0.268,0,1.073-0.268,2.417c-0.538,5.371-4.298,8.326-5.373,4.565c-1.88-6.447-2.686-9.671-2.955-10.475l-2.148-7.252
	c-0.806-2.418-1.343-5.105-2.148-7.791l-1.612-7.521c-0.269-1.88-0.806-4.567-1.343-7.791c-0.538-3.223-1.075-5.639-1.344-7.521
	c-0.268-1.611-0.806-4.297-1.343-8.059l-1.075-7.521c-0.268-1.341-0.537-4.029-1.074-8.059c-0.538-4.029-0.806-6.714-1.075-7.788
	c-0.269-2.418-1.612-9.938-4.029-22.025s-3.76-21.221-3.76-27.936c0-2.955-2.417-5.373-5.372-5.373
	c-2.954,0-5.372,2.418-5.372,5.373c0,6.983,1.343,17.191,4.029,30.353c2.417,13.162,3.76,20.414,3.76,21.22
	c0.268,0.536,0.537,3.492,1.343,8.595c0.806,5.105,1.075,8.326,1.342,9.132c0.269,1.076,0.538,3.762,1.344,8.329
	c0.537,4.565,1.074,7.788,1.343,9.668l1.611,8.329c0.806,4.029,1.343,7.25,1.881,9.668l2.148,8.059
	c0.806,3.223,1.88,6.179,2.686,9.132l6.447,23.102c1.343,4.835,2.687,8.595,3.493,11.012c0,0.269,0.268,0.538,0.268,0.807
	c0.806,2.149,1.075,3.491,1.612,4.566c0.269,0.536,0.538,0.807,1.075,1.342c1.074,1.076,2.417,1.612,4.029,1.612
	c1.88,0,3.224-0.536,4.566-1.88c1.073-1.344,2.148-2.956,3.223-6.985c1.343-5.639,2.686-13.967,3.76-23.635
	c0.537-4.835,0.806-7.523,1.075-8.059l0.805-5.104c2.687-16.654,2.149-16.654,6.179-0.27l1.074,4.297
	c1.343,5.641,3.76,13.968,7.79,25.249l4.029,10.744l1.343,3.224l0.269,0.806c0.269,0.271,0.269,1.612,0.269,4.029v-3.224
	c0,0.271,0,0.271,0.268,0.271c0.269,0.268,0.269,0.536,0.538,0.806l0.806,0.806c0.806,0.807,1.88,1.074,3.223,1.074
	c1.88,0,3.223-0.806,4.298-2.149c0.269-0.269,0.537-0.807,0.806-1.074l0.537-1.611c0.269-0.806,0.806-2.15,1.075-3.762
	c0.806-2.953,1.88-6.444,2.686-11.012c2.15-9.402,3.493-16.385,4.298-20.682l3.76-24.444c1.881-11.819,3.224-20.682,4.298-26.86
	l4.028-23.37c1.611-9.668,3.223-18.532,5.104-26.858l5.103-23.908C385.74,1150.27,384.128,1147.046,381.174,1146.508z
	 M520.581,1166.116c16.653,19.877,21.757,45.396,15.579,76.284c-5.104,25.787-18.266,51.305-34.381,70.375
	c-0.806,0.806-1.612,1.611-2.687,1.882c-2.148,0.535-6.178,0.535-6.178,0.535c-2.417-0.268-4.029-1.611-4.835-3.759
	c0-0.538-0.269-0.806-0.269-1.076c-1.879-21.22-2.686-47.272-2.417-78.163c0.268-11.015,1.343-57.751,1.343-77.359v-0.536
	c0-2.955,2.417-5.103,5.372-5.103h0.269C504.464,1150.002,511.986,1155.641,520.581,1166.116z M512.522,1173.102
	c-3.223-3.762-5.91-6.715-8.864-8.597c-3.224-2.686-6.178-0.536-6.178,3.762c-0.269,19.608-1.075,52.913-1.343,64.195
	c-0.269,21.488,0,40.561,0.806,56.676c0.268,5.104,4.835,6.446,7.521,1.882C528.639,1254.22,538.846,1204.795,512.522,1173.102z
	 M412.335,1242.938c1.612-38.144,1.881-68.226,1.075-89.983c0-2.953-2.687-5.104-5.641-5.104s-5.103,2.686-5.103,5.642
	c0.806,20.414,0.268,49.96-1.075,88.907c-0.269,9.135-0.269,21.22,0.537,36.264c0.806,18.802,1.344,30.62,1.344,35.723
	c0,2.955,2.417,5.373,5.372,5.373c2.955,0,5.372-2.418,5.372-5.373c0-5.641-0.537-17.727-1.343-36.261
	C412.068,1263.353,412.068,1251.803,412.335,1242.938z M883.466,1242.938c1.612-38.144,1.881-68.226,1.075-89.983
	c0-2.953-2.687-5.104-5.642-5.104c-2.954,0-5.103,2.686-5.103,5.642c0.806,20.414,0.268,49.96-1.075,88.907
	c-0.269,9.135-0.269,21.22,0.537,36.264c0.806,18.802,1.344,30.62,1.344,35.723c0,2.955,2.418,5.373,5.372,5.373
	s5.372-2.418,5.372-5.373c0-5.641-0.537-17.727-1.343-36.261C883.198,1263.353,883.198,1251.803,883.466,1242.938z
	 M690.072,1199.692c2.954,0.27,5.91-1.612,6.178-4.565c4.029-26.593-8.326-44.321-27.397-45.663
	c-18.265-1.074-35.456,13.43-39.485,37.873c-0.806,4.567-0.537,9.132,0.269,13.432c1.88,8.594,4.566,13.697,11.281,20.949
	c6.447,7.253,8.865,9.402,17.191,16.117l3.224,2.418c2.687,2.147,4.835,4.029,6.715,5.641l5.91,5.909
	c2.148,2.147,4.028,4.029,5.371,5.908c2.687,3.762,5.372,9.133,6.447,13.7c0.806,4.564,0.537,10.744-0.806,16.921
	c-1.881,6.717-9.134,12.625-17.728,14.505c-8.865,1.882-16.654-0.806-20.146-7.521c-2.418-4.567-3.76-12.894-3.76-24.979v-2.149
	c0-2.955-2.418-5.373-5.372-5.373c-2.955,0-5.372,2.418-5.372,5.373v7.521c0,1.344,0.269,6.179,0.537,8.059
	c0,2.149,0.537,6.447,1.343,8.595c0.806,2.417,1.881,5.91,2.956,8.328c6.446,11.55,19.339,15.041,31.964,12.624
	c12.086-2.418,22.831-10.744,25.786-22.294c2.148-8.326,2.148-16.117,1.073-22.294c-1.343-6.179-5.103-12.626-8.326-17.19
	c-3.224-4.3-9.132-10.477-12.625-13.7l-7.252-5.908c-0.537-0.271-1.074-0.807-1.88-1.612c-10.744-8.597-13.7-11.281-19.877-18.803
	c-6.178-7.252-7.521-13.967-6.178-22.563c2.955-19.341,15.848-29.546,27.935-28.74c11.551,1.073,20.683,12.088,17.459,33.308
	C685.237,1196.469,687.118,1199.424,690.072,1199.692z M782.472,1242.938c1.612-38.144,1.881-68.226,1.075-89.983
	c0-2.953-2.687-5.104-5.641-5.104c-2.955,0-5.104,2.686-5.104,5.642c0.806,20.414,0.269,49.96-1.074,88.907
	c-0.27,9.135-0.27,21.22,0.536,36.264c0.807,18.802,1.344,30.62,1.344,35.723c0,2.955,2.418,5.373,5.372,5.373
	c2.955,0,5.372-2.418,5.372-5.373c0-5.641-0.536-17.727-1.343-36.261C782.204,1263.353,782.204,1251.803,782.472,1242.938z
	 M741.914,1159.134c8.595,9.133,14.505,20.95,13.431,34.111c-0.537,6.717-2.686,12.626-6.715,18.267
	c-3.224,5.104-9.671,10.206-12.625,12.086c-1.343,1.076-4.298,2.688-8.326,5.105l-6.447,3.491c-0.538,0.538-1.074,0.806-1.881,0.806
	c-1.073,0.268-1.879,1.612-1.611,4.835c0.27,5.104,0.806,11.282,1.343,18.532c1.344,20.414,2.418,36.531,2.418,51.305
	c0,2.956-2.418,5.373-5.372,5.373c-2.955,0-5.372-2.417-5.372-5.373c0-10.476-0.537-25.517-1.88-44.587
	c-1.344-19.073-2.149-31.429-2.417-37.338c-0.27-4.029,0-9.67,0.268-16.923c1.074-20.414,2.149-34.917-1.074-46.737
	c-0.806-2.417-2.417-3.759-2.955-6.177c-0.268-1.344-0.268-2.688,0.538-4.029c0.806-1.344,1.879-2.149,3.224-2.417
	C719.62,1145.973,733.318,1150.002,741.914,1159.134z M744.601,1190.292c0-11.014-5.372-20.146-14.236-26.593
	c-2.686-1.612-5.372-2.953-8.059-3.76c-3.761-1.075-5.64,1.612-5.104,5.642c2.418,12.085,1.075,24.711,0.27,43.781
	c0,2.418-0.27,4.567-0.27,6.447c0,3.759,0.807,5.908,2.148,5.103c0.537-0.268,1.343-0.806,2.149-1.344
	c2.149-1.073,3.761-1.88,4.566-2.415l3.761-2.418c3.491-2.149,5.103-3.493,7.252-5.911c1.074-1.073,2.149-2.147,2.955-3.224
	C742.988,1201.036,744.601,1195.934,744.601,1190.292z M953.57,1150.002c-5.641,0.268-15.311,0.268-29.01-0.271
	c-12.894-0.268-22.831-0.268-30.084,0.271c-2.954,0.268-5.103,2.686-4.834,5.639c0.268,3.224,2.686,5.373,5.909,5.105
	c4.029-0.538,8.864-0.538,14.236-0.538c3.491,0,5.372,1.879,5.372,5.373c0,2.59,1.498,14.413,1.604,8.752
	c-0.032,3.034-0.262,6.364-0.262,10.854c-0.269,5.642-0.269,9.402-0.269,11.82c0,6.446-0.269,17.729-0.806,33.575
	c-1.344,32.232-1.344,56.946,1.61,77.09c0.27,2.956,3.224,4.835,6.18,4.567c2.954-0.271,4.834-3.224,4.565-6.179
	c-2.955-19.339-2.955-43.246-1.611-74.672c0.537-15.848,0.806-27.129,0.806-34.382c0-1.611,0-5.103,0.268-10.744
	c0.27-8.059,0-14.237-0.536-20.146c-0.27-3.491,1.343-5.641,5.103-5.37c9.67,0.268,17.19,0.268,22.294,0
	c2.955,0,5.103-2.688,5.103-5.642C959.209,1152.149,956.523,1150.002,953.57,1150.002z"/>
</svg>
