<?xml version="1.0" encoding="utf-8"?>
<!-- Generator: Adobe Illustrator 16.0.0, SVG Export Plug-In . SVG Version: 6.00 Build 0)  -->
<!DOCTYPE svg PUBLIC "-//W3C//DTD SVG 1.1//EN" "http://www.w3.org/Graphics/SVG/1.1/DTD/svg11.dtd">
<svg version="1.1" id="Layer_1" xmlns="http://www.w3.org/2000/svg" xmlns:xlink="http://www.w3.org/1999/xlink" x="0px" y="0px"
	 width="1319.76px" height="1319.76px" viewBox="0 0 1319.76 1319.76" enable-background="new 0 0 1319.76 1319.76"
	 xml:space="preserve">
<path fill="#C2A99E" d="M908.031,28.672l-0.001,0.006c0.707,0.775,1.351,1.498,1.935,2.151c3.561,3.974,5.509,15.872,6.293,21.817
	c0.776,5.952-1.213,9.114-3.209,14.261c-1.994,5.146,1.11,29.339-0.113,45.187c-1.236,15.854-13.129,16.223-17.486,15.814
	c-0.723-0.066-1.56-0.205-2.438-0.404c-1.1-0.252-2.284-0.599-3.411-1.056c-3.403-1.368-6.375-3.671-5.623-6.896
	c0.604-2.582-0.689-6.873-2.52-11.406c0.001-0.006-0.007-0.008-0.005-0.014c-1.822-4.497-4.169-9.228-5.74-12.783
	c-1.934-4.395-5.527-6.389-9.662-10.232c-0.008-0.002-0.014-0.01-0.02-0.018c-1.251-1.157-2.548-2.494-3.867-4.114
	c-0.016,0.256-0.472,7.198-2.307,14.192c-0.932,3.568-2.059,6.941-1.808,10.473c0.382,5.277-4.151,24.875-0.389,39.291l-0.007,0.006
	c2.939,4.973,4.892,13.917,3.028,21.207c-2.316,9.078-14.284,19.939-12.316,25.787c1.967,5.848,22.358,24.373,31.149,28.738
	c8.792,4.364,12.727,16.059,12.105,20.5c-0.621,4.432-5.574,29.863-7.111,38.355c-1.537,8.49,0.725,14.727-3.709,16.545
	c-4.434,1.816-6.414,8.504-9.569,13.629c-3.157,5.137-9.371,14.707-13.423,13.791c-4.051-0.916-4.618-11.783-5.568-19.926
	c-0.84-7.188,4.311-8.652,7.507-9.34c0.424-0.094,0.811-0.166,1.148-0.244c2.876-0.643,6.387-0.848,5.744-3.723
	c-0.643-2.877,2.706-9.379,3.771-12.01c1.065-2.637,5.295-25.377,5.868-29.477c0.574-4.098-2.752-7.705-4.468-10.375
	c-1.588-2.486-13.635-6.736-25.946-10.486c0,0,3.841,6.695,9.176,13.361c5.336,6.668,5.271,17.127,5.201,20.063
	c-0.063,2.945-1.798,10.363-6.32,15.303c-4.521,4.932-9.953,16.367-12.474,21.934c-2.521,5.568-7.965,12.119-9.816,12.904
	c-1.851,0.785-6.427,3.627-10.409,9.688c-0.798,1.211-1.738,2.459-2.778,3.67c-4.142,4.861-9.818,9.191-13.917,8.619
	c-5.124-0.717-1.142-6.777-0.138-13.949c1.005-7.174,2.471-15.158,7.965-14.557c0.461,0.051,0.921,0.135,1.385,0.215
	c2.306,0.393,4.524,0.668,5.768-4.09c1.497-5.709,2.423-3.818,5.977-7.869c4.235-4.826,15.555-19.064,16.367-24.871
	c0.813-5.807,1.626-11.613-2.139-14.578c-3.763-2.965-27.624-24.064-31.744-31.955c-4.112-7.889-1.428-4.727-8.538-1.195
	s-41.357,19.305-72.051,22.133c-30.688,2.838-48.484-5.762-55.317,10.164l-0.001,0.006c-1.137,6.125-2.917,13.07-12.604,22.279
	c-4.443,4.227-11.884,8.609-20.193,13.096c-0.001,0.006-0.001,0.006-0.008,0.006c-0.2,0.389-6.791,12.783-9.712,16.49
	c-2.963,3.758,1.141,6.777,7.35,12.174c6.211,5.396,19.483,18.746,23.213,21.357s7.063,8.65,6.093,10.604
	c-0.969,1.955,3.49,9.893,2.631,16.041c-0.268,1.904-0.61,4.602-0.982,7.516c-0.833,6.494-1.796,14.07-2.365,16.393
	c-0.819,3.367-5.881,0.918-11.4-7.518c-5.52-8.439-8.313-13.352-5.936-17.895c0.863-1.648,1.772-2.369,2.595-2.77
	c1.443-0.711,2.601-0.424,2.658-2.422c0.087-3.115-6.354-0.533-7.351-2.77c-1.006-2.225-1.749-6.861-3.416-9.875
	c-1.667-3.02-18.097-17.508-23.232-23.109c-5.139-5.588-15.504-11.447-18.401-11.742c-0.988,0.846-1.9,1.686-2.714,2.525
	c-12.76,13.188-8.354,23.209-6.763,34.227c1.593,11.012,5.841,30.418,11.455,32.598c2.791,1.072,4.989,2.676,7.253,5.02
	c0.006,0.002,0.006,0.002,0.006,0.002c2.294,2.375,4.656,5.506,7.757,9.617c6.169,8.178-0.026,7.658-11.981,5.984
	c-11.953-1.674-13.661-1.912-12.747-5.963c0.366-1.621,0.404-2.891-0.024-3.912c-0.654-1.533-2.373-2.484-5.672-3.154
	c-5.491-1.125-7.999-2.861-8.623-15.025c-0.617-12.156-10.15-50.176-13.05-62.652s5.485-15.947,13.532-20.395
	c8.054-4.443,26.206-24.656,25.999-29.797c-0.209-5.129-19.35-34.273-21.917-45.785c-1.067-4.766-1.792-9.988-0.64-14.283
	c0.989-3.692,1.753-6.211,1.549-8.281c0.001-0.006,0.001-0.014,0.004-0.02c-0.063-0.607-0.212-1.186-0.462-1.736
	c-0.716-2.051-2.724-2.881-7.112-3.523c-8.77-1.291-52.935,17.67-57.812,60.672c-4.878,43-49.737,30.25-38.659,29.48
	c11.078-0.773,12.055-7.156,9.884-12.643c-2.173-5.473-18.603,1.039-23.448,10.326c-4.752,9.121,12.493,22.859,13.081,23.332
	c-0.923-0.414-32.111-14.602-26.038-31.219c6.164-16.863,31.755-22.502,8.751-22.512c-22.49,0-25.601-9.768-25.728-10.203
	c0.213,0.371,4.853,8.02,29.817,2.139c25.57-6.031,23.922-54.361,45.588-70.176c21.673-15.807,47.212,0.375,60.896,6.254
	c6.76,2.91,12.081,3.252,17.848,1.628c1.421-0.462,4.3-1.821,6.484-3.048c0.007-0.006,0.007-0.006,0.007-0.006
	c1.157-0.646,2.119-1.256,2.576-1.68c11.743-10.894,25.302-21.533,66.712-25.486c41.416-3.953,53.888-10.099,71.924-26.148
	c14.878-13.24,22.847-17.127,31.798-24.309c0.118-0.094,0.228-0.184,0.332-0.279c3.385-3.184-3.325-8.184-0.348-11.598
	c4.189-7.59,6.565-7.836,3.793-10.619c-2.767-2.783,8.786-7.539,8.81-16.27c0.022-8.711,6.703-4.299,12.68-13.806
	c5.961-9.495-3.952-7.539-3.952-7.539c3.843-9.938,18.594-9.481,19.068-15.265c0.659-7.988,6.359-7.26,6.359-7.26
	c-1.203,3.962,2.312,5.478,12.289-1.574c15.14-10.675,31.712-0.297,28.948-3.789c-2.769-3.508-8.369-4.502-8.369-4.502
	c16.116-1.338,18.66,9.201,21.047,7.32c2.382-1.889-2.37-4.406-2.37-4.406c14.844,0.08,21.176,10.975,22.566,13.781
	c0.199,0.418,0.298,0.654,0.298,0.654c0.138-0.141,0.284-0.281,0.437-0.427c4.227-4.074,10.608-8.962,12.109-11.726
	c1.853-3.433,2.634,0.535,2.224,5.556c-0.265,3.285-0.42,7.081-1.726,10.638c0.261-0.424,3.033-4.953,5.687-7.583
	c2.784-2.772,7.015-6.325,7.414-8.581c0.403-2.241,2.252,1.472,1.844,6.088c-0.411,4.623-1.714,8.662-4.848,12.18
	C911.702,27.123,908.346,26.925,908.031,28.672z"/>
<path fill="#8B7C7E" d="M1317.686,357.844c-4.688-0.639-26.488-11.084-24.799-15.688c0.81-2.201,0.926-4.033,0.592-5.371
	c-0.355-1.457-1.242-2.32-2.333-2.408c-2.096-0.168-2.522-4.672-5.841-9.156c-3.327-4.48-15.364-24.934-21.678-28.334
	c-6.305-3.408-18.391-7.777-18.391-7.777h-0.008c-0.033,2.967-0.721,5.611-1.975,7.445c-3.582,5.24-4.658,18.578-5.588,25.219
	c-0.93,6.637-0.133,11.439-8.403,11.168c-4.963-0.164-10.219,1.641-15.444,3.383c-3.499,1.172-6.972,2.313-10.331,2.832
	c-8.397,1.297-10.688,0.322-10.466-2.424c0.221-2.746,8.296-14.732,12.504-17.947c3.241-2.479,6.691,1.156,10.923,1.561
	c1.271,0.119,2.603-0.051,4.019-0.75c6.169-3.057,7.467-19.143,8.004-25.813c0.538-6.67-9.365-6.283-32.811-9.359
	c-7.706-1.01-14.8-1.676-22.314-1.918c-0.016-0.002-0.04-0.002-0.056-0.004c-15.322-0.486-32.403,0.766-59.966,4.365
	c-33.077,4.32-64.459,0.344-81.67-5.994c0,0-0.332,0.779-0.922,2.121c-2.951,6.719-12.346,27.635-18.784,36.766
	c-7.733,10.963-12.338,22.438-11.31,25.941c1.035,3.512,10.377,24.791,24.378,37.246c7.399,6.576,12.956,8.674,17.795,10.564
	c4.326,1.684,8.081,3.219,12.068,7.639c8.453,9.369,5.993,10.49-1.896,10.375c-7.889-0.107-20.808,0.162-21.824-3.6
	c-0.471-1.783-1.191-3.523-2.185-4.725h-0.008c-1.107-1.346-2.57-2.016-4.426-1.338c-3.524,1.297-5.178,2.213-10.318-5.832
	c-5.147-8.051-31.018-43.049-36.896-48.521c-5.877-5.475-7.249-10.592-3.741-15.309c3.516-4.715,8.274-19.748,10.169-26.104
	c-12.233,10.473-28.479,19.668-35.66,21.939c-10.941,3.461-14.807,12.232-15.123,16.156s3.955,24.408,7.872,34.596
	c3.427,8.924,11.657,10.963,17.825,15.377c0.881,0.633,1.711,1.307,2.488,2.057c6.227,6.031,8.669,14.916,7.43,15.605
	c-1.242,0.689-12.948-1.045-18.441-1.486c-5.492-0.443-8.144-1.842-7.859-5.373c0.104-1.287-0.111-2.545-0.673-3.609
	c-0.979-1.855-3.026-3.117-6.307-2.877c-5.164,0.373-10.011-3.178-9.663-7.492c0.348-4.316-4.234-30.748-6.423-42.771
	c-2.19-12.025-6.404-23.42-5.602-28.49c0.805-5.068,17.511-16.359,27.167-23.479c9.657-7.119-3.094-20.389-5.752-36.398
	s0.241-32.362,3.088-43.189c1.741-6.612,2.765-9.895,1.36-11.967c0,0,0.009-0.007,0.001-0.008c-0.897-1.312-2.774-2.135-6.075-3.017
	c-8.506-2.267-54.231,11.422-63.928,53.29c-9.694,41.865-52.497,24.197-41.48,24.691c11.018,0.494,12.7-5.689,11.183-11.34
	c-1.52-5.65-18.472-1.096-24.301,7.518c-5.729,8.463,9.724,23.98,10.249,24.512c-0.829-0.492-30.024-18.051-22.14-33.764
	c7.999-15.939,33.881-18.592,11.188-21.211c-22.137-2.561-24.138-12.508-24.218-12.994c0.159,0.383,3.874,8.461,29.166,5.494
	c25.914-3.043,29.773-50.91,52.947-64.047c23.175-13.137,46.531,5.727,59.364,13.08c6.342,3.631,11.558,4.574,17.432,3.625
	c6.009-0.969,12.706-3.903,22.013-7.947c18.414-7.992,35.646-6.207,50.131-4.645c14.485,1.563,58.238,7.461,72.945,5.883
	c14.706-1.578,19.515-11.457,40.113-22.039c0.494-0.252,0.973-0.505,1.442-0.744c4.735-7.191,7.101-7.254,4.576-10.222
	c-2.525-2.968,9.281-6.786,9.978-15.417c0.697-8.633,6.969-3.751,13.613-12.693c6.646-8.941-3.322-7.771-3.322-7.771
	c4.568-9.543,19.139-7.95,20.055-13.642c1.273-7.857,6.859-6.697,6.859-6.697c-1.494,3.828,1.862,5.6,12.29-0.604
	c15.813-9.402,31.418,2.154,28.95-1.52c-2.467-3.682-7.938-5.103-7.938-5.103c16.056-0.079,17.765,10.555,20.27,8.877
	c2.505-1.687-2.003-4.544-2.003-4.544c14.789,1.23,20.187,12.645,21.296,15.436c0.238,0.082,0.461,0.164,0.676,0.244
	c4.492-3.705,11.201-8.062,12.906-10.688c2.102-3.249,2.571,0.737,1.777,5.673c-0.521,3.227-0.964,6.959-2.519,10.38
	c0.373-0.516,3.418-4.685,6.199-7.051c2.968-2.524,7.435-5.72,8.008-7.915c0.571-2.189,2.111,1.623,1.351,6.166
	c-0.762,4.543-2.363,8.441-5.737,11.685c-3.356,3.235-6.668,2.778-7.113,4.481l-0.001,0.008c0.645,0.816,1.222,1.59,1.751,2.281
	c3.215,4.208,4.227,16.137,4.537,22.084c0.311,5.949-1.904,8.93-4.277,13.872s-1.165,29.129-3.606,44.728
	c-2.443,15.6-14.246,15.042-18.53,14.302c-0.708-0.12-1.529-0.321-2.385-0.587c-1.07-0.332-2.205-0.771-3.291-1.309
	c-3.257-1.621-6.032-4.127-5.037-7.262c0.795-2.511-0.15-6.852-1.616-11.488c-1.447-4.586-3.415-9.468-4.693-13.109
	c-1.579-4.502-4.991-6.76-8.796-10.897c-1.147-1.245-2.328-2.659-3.509-4.366c-0.056,0.383-1.052,7.15-3.378,13.865
	c-2.398,6.914-4.325,13.085-0.629,21.803c3.696,8.725,7.816,26.172,4.403,35.895c-3.423,9.732-4.258,13.613,0.324,15.563
	s17.205,11.916,29.765,16.088c12.561,4.172,15.257,9.918,19.046,15.23c3.781,5.305,14.63,20.924,21.601,25.957
	c6.962,5.039,3.703,9.516,10.721,17.189c1.532,1.672,2.761,3.186,3.755,4.561c3.588,4.965,4.184,8.258,4.964,11.41
	C1317.792,349.953,1322.372,358.49,1317.686,357.844z"/>
<path fill="#D6C8BC" d="M527.723,357.846c-4.688-0.639-26.488-11.084-24.798-15.688c0.809-2.201,0.925-4.033,0.591-5.369
	c-0.356-1.459-1.242-2.32-2.333-2.408c-2.096-0.17-2.522-4.674-5.841-9.158c-3.327-4.479-15.365-24.934-21.677-28.334
	c-6.304-3.414-18.392-7.777-18.392-7.777h-0.008c-0.034,2.967-0.721,5.611-1.974,7.445c-3.582,5.24-4.658,18.58-5.588,25.219
	c-0.931,6.639-0.133,11.441-8.404,11.168c-4.962-0.162-10.218,1.641-15.444,3.383c-3.491,1.172-6.971,2.313-10.33,2.832
	c-8.397,1.289-10.688,0.322-10.467-2.424s8.296-14.732,12.504-17.947c3.241-2.479,6.691,1.156,10.923,1.561
	c1.27,0.119,2.603-0.051,4.017-0.75c6.17-3.057,7.467-19.143,8.006-25.82c0.537-6.662-9.367-6.275-32.813-9.352
	c-7.706-1.008-14.8-1.676-22.314-1.918c-0.016-0.002-0.04-0.002-0.055-0.004c-15.323-0.486-32.404,0.766-59.966,4.365
	c-33.078,4.322-64.459,0.346-81.67-5.994c0,0-0.332,0.779-0.922,2.121c-2.95,6.721-12.345,27.635-18.784,36.766
	c-7.731,10.963-12.337,22.439-11.309,25.934c1.036,3.52,10.377,24.791,24.378,37.254c7.399,6.576,12.956,8.674,17.795,10.566
	c4.327,1.684,8.072,3.217,12.068,7.639c8.454,9.369,5.993,10.49-1.895,10.375c-7.889-0.107-20.808,0.162-21.824-3.602
	c-0.472-1.783-1.192-3.523-2.186-4.725c-0.008,0-0.008,0-0.008,0c-1.108-1.346-2.57-2.016-4.425-1.336
	c-3.524,1.295-5.178,2.211-10.319-5.832c-5.147-8.053-31.018-43.049-36.895-48.523c-5.877-5.473-7.249-10.598-3.741-15.307
	c3.516-4.717,8.275-19.758,10.169-26.105c-12.233,10.475-28.478,19.66-35.659,21.939c-10.941,3.461-14.809,12.234-15.125,16.156
	c-0.316,3.924,3.955,24.408,7.873,34.596c3.427,8.926,11.658,10.963,17.825,15.379c0.881,0.631,1.711,1.305,2.488,2.057
	c6.228,6.021,8.669,14.914,7.43,15.596c-1.241,0.699-12.948-1.035-18.441-1.479c-5.492-0.451-8.144-1.85-7.859-5.373
	c0.104-1.287-0.11-2.543-0.673-3.607c-0.979-1.855-3.026-3.119-6.307-2.879c-5.164,0.375-10.011-3.176-9.663-7.492
	s-4.233-30.748-6.423-42.771c-2.188-12.031-6.404-23.42-5.599-28.498c0.803-5.061,17.509-16.352,27.166-23.469
	c9.657-7.119-3.095-20.391-5.752-36.4c-2.658-16.01,0.241-32.361,3.088-43.189c1.741-6.611,2.764-9.895,1.359-11.966l0.001-0.008
	c-0.897-1.312-2.774-2.135-6.075-3.017c-8.505-2.267-54.232,11.422-63.927,53.289c-9.693,41.859-52.498,24.197-41.48,24.691
	c11.018,0.494,12.701-5.688,11.182-11.34c-1.519-5.65-18.472-1.096-24.3,7.518c-5.729,8.463,9.724,23.98,10.249,24.512
	c-0.829-0.492-30.025-18.051-22.14-33.764c7.999-15.939,33.881-18.592,11.188-21.211C2.081,242.811,0.079,232.863,0,232.375
	c0.158,0.383,3.875,8.463,29.166,5.496c25.914-3.045,29.773-50.911,52.948-64.049c23.173-13.137,46.531,5.728,59.364,13.08
	c6.341,3.632,11.557,4.574,17.43,3.625c6.01-0.967,12.707-3.902,22.013-7.947c18.416-7.992,35.646-6.207,50.132-4.644
	c14.485,1.563,58.238,7.46,72.945,5.882s19.516-11.457,40.114-22.037c0.494-0.254,0.973-0.506,1.442-0.745
	c4.734-7.192,7.101-7.255,4.576-10.222c-2.525-2.969,9.282-6.787,9.978-15.418c0.696-8.632,6.969-3.75,13.613-12.692
	c6.645-8.942-3.322-7.771-3.322-7.771c4.569-9.543,19.138-7.949,20.055-13.643c1.273-7.857,6.858-6.696,6.858-6.696
	c-1.493,3.829,1.862,5.601,12.291-0.604c15.811-9.402,31.417,2.154,28.95-1.52c-2.468-3.682-7.937-5.102-7.937-5.102
	c16.055-0.08,17.764,10.555,20.269,8.877c2.505-1.686-2.002-4.545-2.002-4.545c14.788,1.231,20.186,12.645,21.295,15.436
	c0.238,0.082,0.46,0.164,0.667,0.243c4.5-3.704,11.209-8.06,12.915-10.687c2.102-3.25,2.57,0.736,1.777,5.672
	c-0.521,3.228-0.964,6.959-2.52,10.381c0.373-0.516,3.419-4.686,6.2-7.051c2.968-2.525,7.435-5.719,8.007-7.916
	c0.572-2.189,2.112,1.623,1.352,6.166c-0.762,4.543-2.363,8.442-5.737,11.686c-3.356,3.235-6.668,2.778-7.114,4.48v0.008
	c0.645,0.818,1.222,1.592,1.751,2.281c3.215,4.209,4.228,16.137,4.537,22.085s-1.905,8.929-4.278,13.872
	c-2.373,4.941-1.164,29.129-3.606,44.727c-2.443,15.6-14.245,15.043-18.529,14.303c-0.708-0.121-1.53-0.322-2.385-0.588
	c-1.071-0.332-2.205-0.77-3.291-1.309c-3.257-1.621-6.032-4.127-5.038-7.262c0.795-2.51-0.15-6.852-1.617-11.486
	c-1.446-4.588-3.415-9.469-4.692-13.111c-1.581-4.494-4.976-6.75-8.766-10.871c-0.022-0.018-0.03-0.025-0.03-0.025
	c-1.146-1.254-2.328-2.668-3.509-4.375c-0.041,0.305-1.032,7.111-3.377,13.873c-2.398,6.915-4.325,13.086-0.629,21.803
	c3.695,8.725,7.816,26.173,4.402,35.896c-3.422,9.73-4.256,13.611,0.325,15.561c4.582,1.949,17.205,11.916,29.765,16.088
	c12.561,4.172,15.257,9.918,19.046,15.23c3.782,5.297,14.63,20.926,21.601,25.957c6.962,5.039,3.703,9.508,10.722,17.189
	c1.523,1.672,2.76,3.186,3.755,4.561c3.588,4.965,4.183,8.26,4.964,11.402C527.83,349.955,532.41,358.484,527.723,357.846z"/>
<path fill="#8B7C7E" d="M471.508,519.834c0.339,1.566,0.511,2.625,0.511,3.166c0,3.402-1.909,7.764-5.72,13.076
	c-5.041,7.488-10.557,11.238-16.549,11.238c-5.996,0-11.512-2.998-16.549-8.99c-5.041-5.994-9.98-16.924-14.813-32.793
	c-4.836-15.865-7.253-25.979-7.253-30.34c0-0.68,0.067-1.227,0.205-1.635c-16.345,21.656-28.061,35.959-35.142,42.906
	c-15.802,15.391-31.943,23.086-48.422,23.086c-11.576,0-17.367-4.359-17.367-13.074c0-4.357,1.363-9.16,4.086-14.404
	c2.726-5.242,6.059-9.84,10.011-13.791c3.949-3.949,7.422-5.926,10.42-5.926c0.542,0,0.817,0.137,0.817,0.408
	c0,0.684-1.705,2.385-5.108,5.109c-3.406,2.727-6.675,6.572-9.807,11.543c-3.132,4.975-4.699,9.5-4.699,13.586
	c0,7.219,4.833,10.828,14.506,10.828c18.113,0,43.04-21.248,74.779-63.744c1.769-2.314,3.269-3.949,4.495-4.904l-3.269-1.227
	c-1.771,0.684-3.202,1.023-4.29,1.023c-2.861,0-4.291-1.156-4.291-3.475c0-3.131,2.11-5.174,6.333-6.129
	c0.542-0.135,1.022-0.203,1.43-0.203c2.452,0,5.312,1.225,8.581,3.676c11.984-13.348,18.114-20.156,18.388-20.432
	c9.941-10.215,16.652-15.322,20.125-15.322c3.473,0,5.209,1.5,5.209,4.494c0,1.365-0.307,2.658-0.919,3.883
	c-0.613,1.227-1.328,1.84-2.145,1.84c-0.817,0.273-1.227-0.135-1.227-1.229c0-0.541,0.409-1.357,1.227-2.451
	c0.134-1.906-0.479-2.859-1.839-2.859c-4.36,0-14.915,11.578-31.668,34.732c4.086,0.275,7.49,0.41,10.216,0.41
	c31.599,0,51.35-8.174,59.25-24.518c1.635-3.541,2.452-6.811,2.452-9.809c0-5.992-2.727-11.166-8.173-15.527
	c-8.718-7.08-22.883-10.623-42.497-10.623c-19.614,0-39.636,4.973-60.068,14.914c-24.792,12.125-37.185,26.357-37.185,42.701
	c0,5.313,3.336,7.969,10.012,7.969c6.672,0,13.756-2.453,21.249-7.355c7.49-4.904,12.53-9.736,15.119-14.506
	c0.952-1.77,1.871-2.656,2.758-2.656c0.884,0,1.124,0.545,0.715,1.635c-2.589,7.629-8.345,14.131-17.264,19.51
	c-8.923,5.383-18.219,8.07-27.889,8.07c-9.672,0-14.506-3.064-14.506-9.193c0-0.408,0-0.883,0-1.43
	c2.043-17.842,12.974-32.996,32.792-45.459s43.688-18.695,71.612-18.695c26.015,0,44.47,4.496,55.369,13.484
	c6.538,5.449,9.807,11.852,9.807,19.205c0,3.135-0.75,6.539-2.247,10.217c-4.224,9.943-12.871,17.334-25.948,22.168
	c-13.076,4.836-26.835,7.252-41.271,7.252c-6.813,0-13.146-0.541-19.001-1.633c1.905,5.994,5.925,19.547,12.054,40.656
	c1.906,6.131,4.904,12.33,8.99,18.594c5.583,8.035,10.758,12.055,15.527,12.055c5.721,0,10.487-5.791,14.302-17.367
	c0.68-2.723,1.395-4.086,2.145-4.086C470.62,517.484,471.167,518.27,471.508,519.834z M649.768,488.676
	c-0.408,0-1.633,1.227-3.678,3.678c-0.684,0.955-1.157,1.568-1.429,1.838c-14.85,16.484-25.268,24.723-31.26,24.723
	c-1.91,0-2.86-2.178-2.86-6.537c0-4.357,2.074-9.807,6.23-16.346c4.154-6.537,9.226-13.348,15.222-20.432
	c5.175-6.672,7.897-10.35,8.172-11.033c0.271-0.68,0.409-1.359,0.409-2.043c0-3.402-1.91-5.107-5.721-5.107
	c-0.546,0-1.159,0.07-1.84,0.205c-6.813,0-26.083,15.869-57.82,47.604c2.452-8.715,9.808-21.586,22.066-38.613
	c0.408-0.818,0.611-1.635,0.611-2.453c0-2.859-1.838-4.289-5.516-4.289c-1.362,0-2.655,0.816-3.882,2.451
	c-11.032,13.076-18.321,21.932-21.861,26.559c-0.678,0.855-1.388,1.719-2.112,2.587c-12.87,14.667-23.95,24.025-33.231,28.061
	c-1.227,0.545-2.318,0.818-3.27,0.818c-2.043,0-3.064-1.84-3.064-5.518s2.043-8.48,6.129-14.404
	c4.087-5.924,10.012-13.586,17.775-22.984c5.721-6.539,8.581-10.486,8.581-11.852c0-3.811-2.451-5.719-7.355-5.719
	c-3.269,0-10.081,6.504-20.431,19.51c-10.353,13.01-17.438,21.422-21.249,25.234c-10.898,11.307-19.205,16.957-24.926,16.957
	c-1.635,0-2.452-1.225-2.452-3.678c0-5.584,4.118-14.23,12.361-25.947c8.239-11.713,15.084-20.09,20.533-25.131
	c0.817-0.816,1.226-1.701,1.226-2.656c0-2.451-1.838-3.678-5.517-3.678c-3.677,0-7.288,2.043-10.828,6.131l-28.195,33.098
	c-1.226,1.635-1.839,2.793-1.839,3.473c0,0.684,0.274,1.021,0.817,1.021c0.817,0,1.5-0.271,2.043-0.816
	c4.086-4.629,8.103-8.715,12.055-12.26c-7.083,9.945-10.625,17.846-10.625,23.701c0,0.408,0,0.887,0,1.43
	c0.543,6.947,3.608,10.42,9.195,10.42c8.852,0,21.111-9.123,36.775-27.377c-0.408,1.771-1.123,4.361-2.145,7.764
	c-1.022,3.406-1.532,6.506-1.532,9.295c0,2.795,1.124,5.076,3.371,6.846c2.247,1.768,4.494,2.656,6.742,2.656
	c2.247,0,3.71-0.07,4.393-0.205c3.27-0.684,8.853-4.459,16.753-11.34c3.193-2.779,6.211-5.554,9.071-8.323
	c0.826-0.712,1.816-1.645,2.981-2.812l12.259-12.871c-2.727,5.994-4.974,11.104-6.742,15.324c-1.772,4.223-2.656,7.594-2.656,10.111
	c0,2.523,0.577,4.633,1.736,6.334c1.156,1.705,2.759,2.555,4.802,2.555c0.951,0,4.393-3.811,10.317-11.441
	c5.926-7.627,12.495-15.492,19.716-23.598c7.219-8.102,15.458-15.561,24.724-22.373l-13.076,21.25
	c-5.451,9.535-8.174,17.979-8.174,25.334s3.336,11.033,10.012,11.033c7.081,0,19.068-9.604,35.96-28.809
	c1.904-2.178,2.859-3.949,2.859-5.313C650.381,489.359,650.177,488.676,649.768,488.676z M817.304,475.191
	c0-1.227-1.636-1.701-4.904-1.43c-0.138,0-0.58,0-1.328,0c-0.75,0-7.731-0.205-20.942-0.613
	c18.797-24.789,29.761-39.703,32.896-44.744c5.312-7.627,7.967-14.471,7.967-20.533c0-6.061-2.894-10.793-8.684-14.199
	c-5.79-3.404-14.575-5.109-26.354-5.109c-11.785,0-25.643,2.963-41.579,8.887c-15.937,5.928-30.988,14.68-45.151,26.256
	c-19.615,16.344-29.422,32.557-29.422,48.627c0,6.811,2.114,12.189,6.334,16.141c4.219,3.951,10.078,5.924,17.569,5.924
	c13.62,0,25.606-5.379,35.96-16.141c7.628-7.896,11.44-14.777,11.44-20.635c0-3.541-1.771-5.652-5.312-6.334
	c0.135,0.682,0.205,1.297,0.205,1.838c0,5.996-3.712,13.383-11.136,22.168c-7.426,8.787-15.292,13.521-23.598,14.201
	c-1.227,0.137-2.384,0.203-3.474,0.203c-12.805,0-19.205-5.379-19.205-16.141c0-6.672,2.586-14.303,7.765-22.883
	c5.174-8.582,12.188-16.549,21.043-23.904c12.53-10.625,26.254-19,41.171-25.131c14.914-6.129,27.887-9.195,38.921-9.195
	c14.163,0,21.248,4.771,21.248,14.303c0,6.131-3.27,13.895-9.808,23.293c-15.937,22.611-26.223,37.051-30.851,43.313h-10.421
	c-4.084,0.139-7.048,0.205-8.886,0.205c-1.84,0-3.577,0.684-5.21,2.043c-1.636,1.363-2.454,2.42-2.454,3.168
	c0,0.75,0.271,1.193,0.818,1.328c5.174,0,12.667-0.885,22.475-2.656c-10.217,11.986-20.094,24.619-29.627,37.9
	c-9.535,13.279-14.37,21.555-14.505,24.822c-0.274,1.635,1.258,2.453,4.597,2.453c3.337,0,6.3-1.092,8.889-3.27l5.721-3.064
	c2.994-1.363,4.495-2.385,4.495-3.066c0-0.406-0.75-0.611-2.249-0.611c-2.451,1.635-3.678,1.904-3.678,0.816
	c0-2.588,4.835-10.588,14.508-24.006c9.67-13.416,17.365-23.666,23.088-30.75c0.679-0.408,2.788-0.746,6.334-1.02l17.365,0.406
	C814.646,478.051,817.304,477.1,817.304,475.191z M1009.353,486.633c0,0.816-0.546,1.977-1.636,3.475
	c-7.354,9.672-16.211,18.254-26.56,25.742c-10.354,7.492-19.138,11.236-26.356,11.236c-1.502,0-2.86-0.203-4.088-0.611
	c-8.715-2.453-13.076-7.357-13.076-14.711c0-1.062,0.086-2.146,0.235-3.245c-2.935,2.545-5.997,4.998-9.222,7.331
	c-10.354,7.492-19.139,11.236-26.357,11.236c-1.499,0-2.86-0.203-4.085-0.611c-8.715-2.453-13.076-7.357-13.076-14.711
	c0-1.04,0.085-2.102,0.228-3.178c-1.838,1.63-3.744,3.237-5.743,4.813c-10.763,8.037-19.614,12.053-26.562,12.053
	c-10.216,0-15.323-5.65-15.323-16.957c0-5.721,1.496-11.984,4.494-18.797c2.994-6.811,6.264-12.529,9.807-17.162
	c-0.683,0.137-1.565,0.205-2.655,0.205c-3.27,0-5.995-2.316-8.172-6.947l-15.118,19.615c-8.448,10.488-13.351,15.73-14.713,15.73
	c-0.678,0-1.02-0.271-1.02-0.816c0-1.359,1.154-3.336,3.472-5.926c11.852-13.756,20.228-25.402,25.132-34.938
	c3.13-11.85,7.08-17.775,11.85-17.775c3.132,0,4.698,1.363,4.698,4.088s-1.703,6.197-5.107,10.418l-4.904,6.539
	c0,2.859,2.112,4.291,6.334,4.291c2.453,0,5.177-0.885,8.174-2.656l5.312-3.27c0.271-0.133,0.952-0.205,2.044-0.205
	c1.088,0,2.247,0.684,3.472,2.045c1.227,1.361,1.636,2.588,1.227,3.678l-14.097,17.773c-8.72,11.17-13.076,19.992-13.076,26.459
	c0,6.471,2.993,9.705,8.99,9.705c6.264,0,13.959-3.336,23.088-10.012c3.539-2.565,6.857-5.356,9.996-8.327
	c2.6-7.152,7.981-15,16.154-23.546c11.983-12.529,22.746-18.795,32.281-18.795c3.132,0,5.687,0.852,7.662,2.553
	c1.972,1.705,2.963,3.779,2.963,6.23c0,7.631-5.756,14.916-17.264,21.861c-11.514,6.947-20.875,10.422-28.095,10.422
	c-1.092,0-2.042-0.135-2.859-0.41c-2.043,3.678-3.065,7.561-3.065,11.646c0,7.084,3.371,10.625,10.113,10.625
	s15.494-4.563,26.254-13.689c3.021-2.427,5.877-4.909,8.574-7.445c2.673-7.005,7.977-14.668,15.942-22.999
	c11.984-12.529,22.744-18.795,32.279-18.795c3.132,0,5.687,0.852,7.664,2.553c1.973,1.705,2.961,3.779,2.961,6.23
	c0,7.631-5.756,14.916-17.264,21.861c-11.511,6.947-20.875,10.422-28.095,10.422c-1.089,0-2.042-0.135-2.859-0.41
	c-2.043,3.678-3.064,7.561-3.064,11.646c0,7.084,3.372,10.625,10.115,10.625c6.742,0,15.491-4.563,26.253-13.689
	c8.307-6.672,15.391-13.756,21.248-21.248c1.227-1.635,2.28-2.451,3.168-2.451C1008.907,485.408,1009.353,485.814,1009.353,486.633z
	 M900.864,496.031c0.817,0.273,1.7,0.408,2.655,0.408c5.175,0,12.088-2.758,20.738-8.273c8.647-5.518,14.063-11.545,16.242-18.082
	c0.271-0.68,0.408-1.293,0.408-1.838c0-1.635-1.736-2.453-5.21-2.453s-8.412,2.656-14.811,7.969
	C912.305,480.846,905.629,488.268,900.864,496.031z M953.369,496.031c0.817,0.273,1.703,0.408,2.658,0.408
	c5.174,0,12.085-2.758,20.737-8.273c8.648-5.518,14.061-11.545,16.242-18.082c0.271-0.68,0.409-1.293,0.409-1.838
	c0-1.635-1.737-2.453-5.211-2.453c-3.473,0-8.412,2.656-14.813,7.969C964.813,480.846,958.137,488.268,953.369,496.031z"/>
</svg>
